<svg width="33" height="28" viewBox="0 0 33 28" fill="none" xmlns="http://www.w3.org/2000/svg">
<path fill-rule="evenodd" clip-rule="evenodd" d="M2.57956 11.6834L20.075 4.14735C28.4063 0.682052 30.1375 0.0801313 31.2658 0.0602713C31.514 0.0558913 32.0689 0.117391 32.4283 0.409051C32.7319 0.655291 32.8153 0.988051 32.8553 1.22145C32.8954 1.45485 32.945 1.98687 32.9055 2.40249C32.454 7.14609 30.5005 18.6579 29.5066 23.9709C29.086 26.2191 28.2586 26.9729 27.4564 27.0467C25.7143 27.207 24.3913 25.8953 22.7039 24.7892L16.0089 20.292C13.0469 18.3402 14.967 17.2674 16.6551 15.5142C17.0968 15.0552 24.7728 8.07339 24.9213 7.44003C24.9393 7.36083 24.9571 7.06563 24.7817 6.90963C24.6063 6.75363 24.3473 6.80763 24.1605 6.84945C23.8958 6.90957 19.6777 9.69753 11.5064 15.2135C10.3091 16.0356 9.22462 16.4363 8.25304 16.4153C7.18186 16.3921 5.1214 15.8096 3.58966 15.3117C1.71088 14.701 0.217663 14.3781 0.347743 13.3409C0.415423 12.8007 1.15936 12.2483 2.5795 11.6835L2.57956 11.6834Z" fill="white"/>
</svg>
