<svg width="28" height="23" viewBox="0 0 28 23" fill="none" xmlns="http://www.w3.org/2000/svg">
<path fill-rule="evenodd" clip-rule="evenodd" d="M2.31761 9.73588L16.8971 3.45588C23.8399 0.568133 25.2825 0.066532 26.2228 0.049982C26.4297 0.0463319 26.8921 0.0975814 27.1916 0.340631C27.4446 0.545832 27.5141 0.823132 27.5474 1.01763C27.5808 1.21213 27.6222 1.65548 27.5892 2.00183C27.213 5.95483 25.585 15.548 24.7568 19.9755C24.4063 21.849 23.7168 22.4772 23.0483 22.5386C21.5965 22.6722 20.4941 21.5791 19.0879 20.6574L13.5087 16.9098C11.0404 15.2833 12.6405 14.3893 14.0472 12.9283C14.4153 12.5458 20.812 6.72758 20.9357 6.19978C20.9507 6.13378 20.9656 5.88778 20.8194 5.75778C20.6733 5.62778 20.4574 5.67278 20.3018 5.70763C20.0811 5.75773 16.5661 8.08103 9.75666 12.6776C8.75891 13.3628 7.85516 13.6966 7.04551 13.6791C6.15286 13.6598 4.43581 13.1744 3.15936 12.7595C1.5937 12.2506 0.349355 11.9815 0.457755 11.1172C0.514155 10.667 1.1341 10.2067 2.31756 9.73598L2.31761 9.73588Z" fill="white"/>
</svg>
