<svg width="34" height="33" viewBox="0 0 34 33" fill="none" xmlns="http://www.w3.org/2000/svg">
<path d="M24.8125 19.6265C24.4375 19.439 22.4688 18.314 22.0938 18.2202C21.7188 18.0327 21.4375 18.0327 21.1563 18.4077C20.875 18.7827 20.0313 19.7202 19.8438 19.9077C19.5625 20.189 19.375 20.189 19 20.0015C18.625 19.814 17.3125 19.3452 15.8125 17.8452C14.6875 16.7202 13.8438 15.4077 13.6563 14.939C13.4688 14.564 13.6563 14.2827 13.8438 14.0952C14.0313 13.9077 14.2188 13.6265 14.5 13.439C14.7813 13.2515 14.7813 13.064 14.9688 12.7827C15.1563 12.5015 15.0625 12.314 14.9688 12.0327C14.875 11.7515 14.125 9.78271 13.8438 8.93896C13.5625 8.09521 13.1875 8.28271 13 8.18896C12.7188 8.18896 12.5313 8.09521 12.25 8.09521C11.875 8.09521 11.4063 8.28271 11.125 8.56396C10.75 8.93896 9.625 9.87646 9.625 11.8452C9.625 13.814 10.9375 15.8765 11.125 16.064C11.3125 16.3452 13.75 20.6577 17.7813 22.439C21.8125 24.2202 21.8125 23.6577 22.5625 23.6577C23.3125 23.6577 25 22.7202 25.375 21.8765C25.75 20.939 25.75 20.0952 25.6563 20.0015C25.4688 20.0015 25.1875 19.9077 24.8125 19.6265ZM17.3125 29.2827C14.6875 29.2827 12.25 28.5327 10.0938 27.1265L5.03125 28.7202L6.71875 23.8452C5.125 21.5952 4.1875 18.8765 4.1875 16.064C4.1875 8.75146 10.0938 2.84521 17.4063 2.84521C24.7188 2.84521 30.5313 8.75146 30.5313 16.064C30.5313 23.3765 24.625 29.2827 17.3125 29.2827ZM17.3125 0.220215C8.59375 0.220215 1.46875 7.34521 1.46875 16.064C1.46875 18.9702 2.21875 21.7827 3.71875 24.2202L0.8125 32.7515L9.625 29.939C11.9688 31.2515 14.5938 31.9077 17.3125 31.9077C26.0313 31.9077 33.1563 24.7827 33.1563 16.064C33.1563 7.34521 26.125 0.220215 17.3125 0.220215Z" fill="white"/>
</svg>
