<svg width="28" height="28" viewBox="0 0 28 28" fill="none" xmlns="http://www.w3.org/2000/svg">
<path d="M20.3438 16.1885C20.0313 16.0322 18.3906 15.0947 18.0781 15.0166C17.7656 14.8603 17.5313 14.8603 17.2969 15.1728C17.0625 15.4853 16.3594 16.2666 16.2031 16.4228C15.9688 16.6572 15.8125 16.6572 15.5 16.501C15.1875 16.3447 14.0938 15.9541 12.8438 14.7041C11.9063 13.7666 11.2031 12.6728 11.0469 12.2822C10.8906 11.9697 11.0469 11.7353 11.2031 11.5791C11.3594 11.4228 11.5156 11.1885 11.75 11.0322C11.9844 10.876 11.9844 10.7197 12.1406 10.4854C12.2969 10.251 12.2188 10.0947 12.1406 9.86035C12.0625 9.62598 11.4375 7.98535 11.2031 7.28223C10.9688 6.5791 10.6563 6.73535 10.5 6.65723C10.2656 6.65723 10.1094 6.5791 9.875 6.5791C9.5625 6.5791 9.17188 6.73535 8.9375 6.96973C8.625 7.28223 7.6875 8.06348 7.6875 9.7041C7.6875 11.3447 8.78125 13.0635 8.9375 13.2197C9.09375 13.4541 11.125 17.0478 14.4844 18.5322C17.8438 20.0166 17.8438 19.5478 18.4688 19.5478C19.0938 19.5478 20.5 18.7666 20.8125 18.0635C21.125 17.2822 21.125 16.5791 21.0469 16.501C20.8906 16.501 20.6563 16.4228 20.3438 16.1885ZM14.0938 24.2353C11.9063 24.2353 9.875 23.6103 8.07813 22.4385L3.85937 23.7666L5.26563 19.7041C3.9375 17.8291 3.15625 15.5635 3.15625 13.2197C3.15625 7.12598 8.07813 2.2041 14.1719 2.2041C20.2656 2.2041 25.1094 7.12598 25.1094 13.2197C25.1094 19.3135 20.1875 24.2353 14.0938 24.2353ZM14.0938 0.0166016C6.82813 0.0166016 0.890625 5.9541 0.890625 13.2197C0.890625 15.6416 1.51562 17.9853 2.76562 20.0166L0.34375 27.126L7.6875 24.7822C9.64063 25.876 11.8281 26.4229 14.0938 26.4229C21.3594 26.4229 27.2969 20.4853 27.2969 13.2197C27.2969 5.9541 21.4375 0.0166016 14.0938 0.0166016Z" fill="white"/>
</svg>
